<svg xmlns="http://www.w3.org/2000/svg" viewBox="0 0 144.77 98.14"><defs><style>.cls-1{fill:#343c37;}</style></defs><title>neutral-cart-icon-dark</title><g id="Layer_2" data-name="Layer 2"><g id="Layer_4" data-name="Layer 4"><path class="cls-1" d="M62.83,96.17a49.14,49.14,0,0,0,55.69-21.62,49.55,49.55,0,0,1,3.12-5.14c2.11-2.73,4.45-5.42,8.15-5.42,3,0,5.17,1.82,5.17,4.94,0,4.07-4.1,7.29-6.92,9.69L114.16,90.44v7.11h30.61V89.2H128.18l5.6-4.67c5.41-4.4,10.6-8.51,10.6-16.1,0-8.18-6.23-12.9-14.08-12.9-4.91,0-8.35,1.37-11.32,4-4.47,4-4.43,5.9-7.25,10.59a41.1,41.1,0,0,1-23,18h0l-.88.26h-.07l-.88.24-.07,0h-.05l-.91.22H85.8l-.91.2h-.1l-.95.18h0a41.18,41.18,0,0,1-7.24.64h-.49a40.88,40.88,0,0,1-13.26-2.36h0A41,41,0,0,1,37.48,61.32l0-.07v0l0-.06-.18-.61L37.09,60,37,59.59l-.18-.7,0-.14c-.07-.29-.14-.58-.2-.86v-.05c-.06-.29-.12-.57-.18-.86l0-.23L36.2,56v-.08l-.08-.49L36,55V55L36,54.46h0L35.92,54V54l-.06-.49v-.08l0-.34-.06-.71,0-.24c0-.3,0-.6-.06-.89v-.08c0-.31,0-.61,0-.92v-.18c0-.33,0-.66,0-1s0-.66,0-1v-.18c0-.3,0-.61,0-.91V46.9c0-.29,0-.58.06-.88l0-.26.06-.68,0-.38v-.06l.06-.49v0l.06-.46.07-.49c0-.31.09-.62.14-.93V42.2A40.82,40.82,0,0,1,37.3,37.4h0c.08-.28.17-.57.26-.85l0-.09.16-.47.08-.25.2-.58.15-.41.24-.64,0-.07,0-.07.32-.79,0-.07,0-.06c.11-.27.23-.53.35-.79l0-.06h0a40.84,40.84,0,0,1,8.38-12.1h0a40.86,40.86,0,0,1,12.11-8.38h0l.76-.34.13-.05.13-.05.77-.31h.06l.78-.3.23-.08.23-.08h0A40.93,40.93,0,0,1,76.07,8.1h.51q1.57,0,3.14.12h0l1,.09h.11l.86.1.2,0,.93.13h0l1,.16h0l1,.18h.09l.94.2h0a40.72,40.72,0,0,1,19.69,10.93l0,0A40.72,40.72,0,0,1,116,37.85v0c.09.32.18.64.26,1h0c.08.31.16.62.23.93v.05l0,.08.17.8.06.28.15.76,0,.23.13.78,0,.22.1.72,0,.39.07.66,0,.31.06.73,0,.23c0,.3,0,.61.06.91V47l0,.93v.17c0,.33,0,.66,0,1s0,.66,0,1v.18c0,.3,0,.61,0,.92v.09l-.06.88,0,.26-.06.69,0,.36v.07l-.06.49v0l-.06.45-.05.38A19.59,19.59,0,0,1,125.61,51c0-.65,0-1.3,0-2a48.93,48.93,0,0,0-14.37-34.68h0A49.08,49.08,0,0,0,62.82,2,49.06,49.06,0,0,0,14.37,83.75l0,0A49.09,49.09,0,0,0,62.83,96.17Z"/></g></g></svg>