<svg xmlns="http://www.w3.org/2000/svg" viewBox="0 0 631.77 96.98"><defs><style>.cls-1{fill:#fff;}</style></defs><title>neutral-cart-logo-bright</title><g id="Layer_2" data-name="Layer 2"><g id="Layer_4" data-name="Layer 4"><path class="cls-1" d="M62.09,95a48.56,48.56,0,0,0,55-21.36,49,49,0,0,1,3.09-5.08c2.08-2.7,4.4-5.36,8.05-5.36,3,0,5.1,1.8,5.1,4.88,0,4-4,7.21-6.84,9.58L112.81,89.37v7h30.25V88.15h-16.4l5.54-4.62c5.35-4.35,10.48-8.41,10.48-15.91,0-8.08-6.16-12.75-13.91-12.75-4.85,0-8.25,1.36-11.19,4-4.42,3.95-4.38,5.83-7.16,10.47A40.62,40.62,0,0,1,87.72,87.16h0l-.87.26h-.07l-.87.24-.07,0h-.05l-.9.22h-.06l-.9.19h-.1l-.94.18h0a40.69,40.69,0,0,1-7.16.63H75.2a40.4,40.4,0,0,1-13.11-2.33h0a40.49,40.49,0,0,1-25-26l0-.07v0l0-.06-.18-.6-.15-.53-.11-.4-.18-.7,0-.14c-.07-.28-.14-.57-.2-.85v-.05c-.06-.28-.12-.57-.18-.85l0-.23-.13-.73v-.08l-.08-.48-.06-.43v-.05l-.07-.48h0l-.05-.42v-.05l-.06-.48v-.08l0-.33-.06-.7,0-.24c0-.29,0-.59-.06-.88v-.08c0-.3,0-.61,0-.91v-.17c0-.32,0-.65,0-1s0-.65,0-1v-.18c0-.3,0-.6,0-.9v-.09c0-.29,0-.58.05-.87l0-.26.06-.67,0-.37v-.06l.06-.48v0l.06-.45.07-.48c0-.31.09-.61.14-.92V41.7A40.33,40.33,0,0,1,36.86,37h0c.08-.28.17-.56.26-.84l0-.09.15-.47.08-.25.2-.57.15-.4.24-.63,0-.07,0-.07.32-.78,0-.07,0-.06c.11-.26.23-.52.34-.78l0-.06h0a40.36,40.36,0,0,1,8.28-12h0a40.38,40.38,0,0,1,12-8.28h0l.76-.33.12-.05.13-.05.76-.31h.06l.77-.29.22-.08.23-.08h0A40.44,40.44,0,0,1,75.18,8h.51q1.55,0,3.11.12h0l1,.08h.1l.85.1.19,0,.92.13h0l1,.16h0l1,.18h.09l.93.2h0a40.24,40.24,0,0,1,19.46,10.8l0,0a40.24,40.24,0,0,1,10.31,17.55v0c.09.31.17.63.26.94h0c.08.31.15.61.22.92v.05l0,.08.17.79.06.27.14.75,0,.23.13.77,0,.22.1.71,0,.39.07.65,0,.3.06.72,0,.22c0,.3,0,.6.06.9v.06l0,.92v.17c0,.32,0,.65,0,1s0,.65,0,1v.17c0,.3,0,.6,0,.9v.09l-.05.87,0,.25-.06.69,0,.35v.07l-.06.48v0l-.06.44-.05.37a19.36,19.36,0,0,1,8.36-3.77c0-.64,0-1.29,0-1.93A48.36,48.36,0,0,0,110,14.22h0A48.5,48.5,0,0,0,62.08,1.94,48.48,48.48,0,0,0,14.2,82.76l0,0A48.51,48.51,0,0,0,62.09,95Z"/><path class="cls-1" d="M176.13,24.25H179L207.4,60V24.25h2.94V65.39H208l-29-36.56V65.39h-2.94Z"/><path class="cls-1" d="M222.57,24.25h29.27v2.82H225.62V43.23h23.57v2.82H225.62V62.57h26.51v2.82H222.57Z"/><path class="cls-1" d="M261.3,48.28v-24h3.06V48c0,9.7,5.23,15.28,13.93,15.28,8.35,0,13.7-5.05,13.7-15v-24H295V47.93c0,11.81-6.88,18.1-16.87,18.1S261.3,59.8,261.3,48.28Z"/><path class="cls-1" d="M318,27.07H303.68V24.25h31.74v2.82H321.08V65.39H318Z"/><path class="cls-1" d="M344.71,24.25H362c5.06,0,9.11,1.59,11.58,4.06a10.85,10.85,0,0,1,3.12,7.64v.12c0,6.88-5.11,10.82-12,11.76l13.58,17.57h-3.88l-13.11-17H347.76v17h-3.06Zm16.93,21.34c6.88,0,12-3.47,12-9.4v-.12c0-5.52-4.35-9-11.81-9h-14V45.58Z"/><path class="cls-1" d="M402.84,24h2.94l19.16,41.44h-3.35l-5.23-11.52H392.08l-5.23,11.52h-3.17Zm12.23,27.15L404.25,27.3l-10.87,23.8Z"/><path class="cls-1" d="M433.63,24.25h3.06V62.57h24.16v2.82H433.63Z"/><path class="cls-1" d="M467.37,44.93v-.12c0-11.7,8.76-21.28,21.22-21.28a21.45,21.45,0,0,1,16.1,6.41l-4.64,5.35c-3.29-3.06-6.82-5.11-11.52-5.11-7.82,0-13.58,6.46-13.58,14.52v.12c0,8.05,5.7,14.58,13.58,14.58,5.05,0,8.29-2,11.81-5.29l4.64,4.7c-4.29,4.47-9,7.29-16.69,7.29C476.31,66.09,467.37,56.75,467.37,44.93Z"/><path class="cls-1" d="M527.15,24h6.7L552,65.39h-7.64l-4.17-9.93H520.68l-4.23,9.93H509ZM537.49,49l-7.11-16.46L523.33,49Z"/><path class="cls-1" d="M559,24.25h18.34c5.17,0,9.23,1.53,11.87,4.11a12.44,12.44,0,0,1,3.41,8.88v.12c0,6.76-4.06,10.81-9.76,12.46L594,65.39H585.4L575.29,51h-9.05V65.39H559Zm17.81,20.4c5.17,0,8.46-2.7,8.46-6.88v-.12c0-4.41-3.17-6.82-8.52-6.82H566.23V44.64Z"/><path class="cls-1" d="M611.43,30.95h-13v-6.7h33.39v6.7h-13V65.39h-7.29Z"/></g></g></svg>