<svg xmlns="http://www.w3.org/2000/svg" xmlns:xlink="http://www.w3.org/1999/xlink" viewBox="0 0 128 128"><defs><style>.cls-1{opacity:0.9;fill:url(#linear-gradient);}.cls-2{fill:#fff;}</style><linearGradient id="linear-gradient" x1="-946.39" y1="-18.65" x2="436.84" y2="-18.65" gradientTransform="translate(87.58 65.73) scale(0.09)" gradientUnits="userSpaceOnUse"><stop offset="0" stop-color="#6ec171"/><stop offset="1" stop-color="#75cac0"/></linearGradient></defs><title>icon</title><g id="Layer_2" data-name="Layer 2"><g id="Layer_1-2" data-name="Layer 1"><rect class="cls-1" width="128" height="128" transform="translate(128 128) rotate(180)"/></g><g id="Isolation_Mode" data-name="Isolation Mode"><path class="cls-2" d="M61.39,65.8a15,15,0,0,0,17-6.58,15.09,15.09,0,0,1,1-1.57A3.26,3.26,0,0,1,81.78,56a1.45,1.45,0,0,1,1.57,1.5c0,1.24-1.25,2.22-2.11,3L77,64.06v2.17h9.32V63.68H81.29L83,62.26c1.65-1.34,3.23-2.59,3.23-4.9,0-2.49-1.9-3.93-4.29-3.93a4.84,4.84,0,0,0-3.45,1.22c-1.36,1.22-1.35,1.8-2.21,3.23a12.52,12.52,0,0,1-7,5.48h0l-.27.08h0l-.27.07h0l-.28.07h0l-.28.06h0l-.29.05h0a12.54,12.54,0,0,1-2.21.19h-.15a12.45,12.45,0,0,1-4-.72h0a12.49,12.49,0,0,1-7.73-8v0h0v0L53.61,55l0-.16,0-.12-.05-.21v0l-.06-.26v0l-.05-.26v-.07l0-.23v0l0-.15,0-.13v0l0-.15h0l0-.13v0l0-.15V52.7l0-.22v-.07a1.34,1.34,0,0,0,0-.27V50.81a1.34,1.34,0,0,1,0-.27v-.08l0-.21v-.13l0-.15h0l0-.14,0-.15a1.82,1.82,0,0,1,0-.28v0a12.43,12.43,0,0,1,.34-1.46h0l.08-.26v0l0-.14,0-.08.06-.18,0-.12.07-.19v0l.1-.24v0l.11-.24v0h0a12.44,12.44,0,0,1,2.56-3.7h0a12.44,12.44,0,0,1,3.69-2.55h0l.23-.1h0l0,0,.23-.09h0l.24-.09.07,0,.07,0h0a12.47,12.47,0,0,1,4-.72h.16q.48,0,1,0h0l.3,0h0l.26,0h.06l.28,0h0l.3,0h0l.3.05h0l.29.06h0a12.4,12.4,0,0,1,6,3.33h0A12.4,12.4,0,0,1,77.58,48h0c0,.1.05.19.08.3h0l.07.28v0l.05.24,0,.09,0,.23v.07l0,.24v.07l0,.22v.12l0,.2v.09l0,.22v.07a1.41,1.41,0,0,0,0,.28v1.32l0,.27v.08l0,.21v.13l0,.15h0l0,.14,0,.12a6,6,0,0,1,2.58-1.16v-.61a14.9,14.9,0,0,0-4.32-10.56h0A15,15,0,0,0,61.38,37.1,14.94,14.94,0,0,0,46.63,62h0a15,15,0,0,0,14.76,3.78Z"/><path class="cls-2" d="M17.43,82.91h.9l5.32,6.77V82.91h.93v8.46h-.76l-5.46-6.94v6.94h-.93Z"/><path class="cls-2" d="M27,82.91h6.11v.87H27.93v2.89h4.62v.87H27.93v3h5.22v.87H27Z"/><path class="cls-2" d="M34.94,87.82V82.91h1v4.87c0,1.83,1,2.85,2.59,2.85S41,89.69,41,87.84V82.91h1v4.85c0,2.47-1.41,3.75-3.53,3.75S34.94,90.22,34.94,87.82Z"/><path class="cls-2" d="M46.49,83.78H43.65v-.87H50.3v.88H47.45v7.58h-1Z"/><path class="cls-2" d="M52.07,82.91h3.64a3.3,3.3,0,0,1,2.41.85,2.34,2.34,0,0,1,.65,1.67v0a2.48,2.48,0,0,1-2.3,2.47l2.6,3.46H57.9l-2.45-3.29H53v3.29h-1Zm3.55,4.3c1.27,0,2.17-.65,2.17-1.74v0c0-1-.8-1.67-2.16-1.67H53v3.43Z"/><path class="cls-2" d="M63.94,82.84h.9l3.86,8.53h-1l-1-2.24H62.07l-1,2.24h-1Zm2.36,5.42-1.92-4.3-1.93,4.3Z"/><path class="cls-2" d="M70.36,82.91h1v7.58h4.76v.88H70.36Z"/><path class="cls-2" d="M77.36,87.15v0a4.28,4.28,0,0,1,4.19-4.38h.18A4.41,4.41,0,0,1,85,84.07l-1,1.1a3.37,3.37,0,0,0-2.37-1.05,2.85,2.85,0,0,0-2.79,3v0a2.85,2.85,0,0,0,2.79,3A3.33,3.33,0,0,0,84.15,89l1,1a4.36,4.36,0,0,1-3.43,1.5,4.26,4.26,0,0,1-4.31-4.21S77.36,87.19,77.36,87.15Z"/><path class="cls-2" d="M89.65,82.84H91l3.72,8.53H93.18l-.86-2.06h-4l-.87,2H85.93ZM91.78,88l-1.46-3.38L88.87,88Z"/><path class="cls-2" d="M96.2,82.91H100a3.35,3.35,0,0,1,2.44.85,2.56,2.56,0,0,1,.7,1.83v0a2.54,2.54,0,0,1-2,2.56l2.28,3.2h-1.77l-2.08-2.95H97.69v2.95H96.2Zm3.65,4.19c1.06,0,1.74-.56,1.74-1.41v0c0-.91-.65-1.4-1.75-1.4H97.68v2.84Z"/><path class="cls-2" d="M107,84.27H104.3V82.91h6.86v1.38h-2.68v7.08H107Z"/></g></g></svg>